<?xml version="1.0" encoding="utf-8"?>
<!-- Generator: Adobe Illustrator 21.1.0, SVG Export Plug-In . SVG Version: 6.00 Build 0)  -->
<svg version="1.1"
	 id="svg3944" inkscape:version="0.48.0 r9654" sodipodi:docname="groovy-logo.svg" xmlns:cc="http://creativecommons.org/ns#" xmlns:dc="http://purl.org/dc/elements/1.1/" xmlns:inkscape="http://www.inkscape.org/namespaces/inkscape" xmlns:rdf="http://www.w3.org/1999/02/22-rdf-syntax-ns#" xmlns:sodipodi="http://sodipodi.sourceforge.net/DTD/sodipodi-0.dtd" xmlns:svg="http://www.w3.org/2000/svg"
	 xmlns="http://www.w3.org/2000/svg" xmlns:xlink="http://www.w3.org/1999/xlink" x="0px" y="0px" viewBox="0 0 16 16"
	 style="enable-background:new 0 0 16 16;" xml:space="preserve">
<style type="text/css">
	.st0{fill:#333333;}
	.st1{fill:#6398AA;}
</style>
<sodipodi:namedview  bordercolor="#666666" borderopacity="1.0" fit-margin-bottom="0" fit-margin-left="0" fit-margin-right="0" fit-margin-top="0" id="base" inkscape:current-layer="layer1" inkscape:cx="288.36242" inkscape:cy="84.929822" inkscape:document-units="px" inkscape:pageopacity="0.0" inkscape:pageshadow="2" inkscape:window-height="822" inkscape:window-maximized="1" inkscape:window-width="1600" inkscape:window-x="0" inkscape:window-y="28" inkscape:zoom="1.2316035" pagecolor="#ffffff" showgrid="false">
	</sodipodi:namedview>
<g id="layer1" transform="translate(-35.396599,-30.558196)" inkscape:groupmode="layer" inkscape:label="Ebene 1">
	<path id="path4019" inkscape:connector-curvature="0" class="st0" d="M38.7,42.5c0,0,0.3-0.5,0.6-1c0.3-0.5,0.6-1,0.5-1
		s-0.2,0-0.3,0.1c-0.4,0.1-0.5,0.1-0.8-0.4c-0.3-0.5-0.4-0.6-0.2-0.8c0.1-0.1,0.1-0.2-0.1-0.3c-0.1-0.1-0.2-0.2-0.2-0.3
		c0-0.1-0.8-0.4-2-0.8c-0.3-0.1-0.5-0.2-0.5-0.2c0,0,0.6,0,1.3,0l1.3,0l0.1-0.2c0.5-0.9,1.4-1.6,1.7-1.6c0.1,0,0.2,0.1,0.3,0.2
		c0.2,0.1,0.2,0.2,0.2,0.9c0,0.4,0.1,0.7,0.1,0.7c0,0,0.1,0,0.2-0.1c0.1-0.1,0.2-0.1,0.4-0.1c0.2,0,0.3,0,0.4-0.1
		c0.1-0.2,0.8-1.2,0.8-1.3c0,0,0.1-0.2,0.3-0.5c0.2-0.3,0.3-0.6,0.4-0.7c0.1-0.2,0.1-0.2,0.8,1c0.7,1.2,1.1,1.7,1.3,1.5
		c0.1-0.1,0.9-0.1,1.1,0c0.1,0.1,0.2,0.1,0.3,0c0.1-0.1,0.4-0.1,0.5,0c0.1,0.1,0.1,0.1,0.2,0c0.1-0.1,0.2-0.1,0.4-0.1
		c0.2,0,0.3,0,0.4,0.2l0.1,0.2l1.4-0.1c0.8,0,1.4,0,1.4,0s-0.6,0.3-1.3,0.5c-0.7,0.3-1.3,0.5-1.3,0.5s0,0.2,0.1,0.5
		c0.1,0.7,0,1.2-0.3,1.6c-0.2,0.2-0.4,0.4-0.6,0.4c-0.2,0.1-0.3,0.1-0.3,0.1s0.2,0.3,0.4,0.6s0.3,0.6,0.3,0.6
		c-0.1,0-1.5-0.6-3.8-1.5c-0.4-0.2-0.9-0.3-0.9-0.3c-0.1,0-0.9,0.3-3.3,1.3C38.7,42.5,38.7,42.5,38.7,42.5L38.7,42.5z M41.5,41.2
		c0.7-0.3,1.5-0.6,1.6-0.6c0.3-0.1,0.4-0.1,1.7,0.4c0.8,0.3,1.5,0.6,1.7,0.7c0.2,0.1,0.5,0.2,0.7,0.3c0.3,0.1,0.4,0.1,0.4,0.1
		c-0.4-0.7-0.4-0.7-0.7-0.7c-0.4,0.1-0.6,0-0.7-0.2c-0.1-0.1-0.1-0.2,0.1-0.4c0.3-0.3,0.2-0.5-0.1-0.7c-0.1-0.1-0.3-0.3-0.4-0.4
		l-0.1-0.3l-0.3,0.2c-0.4,0.2-0.8,0.3-1.1,0L44,39.3l-0.3,0.2c-0.3,0.2-0.7,0.2-1,0.1c-0.1,0-0.1,0-0.1,0.1c0,0.1-0.1,0.2-0.2,0.2
		C42,40,41.6,40,41.4,39.8l-0.2-0.2L41,39.8c-0.1,0.1-0.3,0.3-0.5,0.4c-0.2,0.1-0.5,0.5-0.8,1c-0.3,0.4-0.5,0.8-0.5,0.9
		c0,0,0.2,0,0.5-0.1C40,41.8,40.8,41.4,41.5,41.2L41.5,41.2z M47.8,40.9c0.6-0.3,0.7-0.9,0.4-2c-0.2-0.9-0.3-1.2-0.4-1.2
		c-0.1,0-0.1,0-0.1,0.1c0.3,0.7,0.3,1.1,0.1,1.2c-0.2,0.1-0.4-0.2-0.5-0.7c-0.1-0.4-0.2-0.6-0.3-0.5c0,0,0,0.2,0.1,0.3
		c0.1,0.1,0.2,0.6,0.2,0.9c0,0.4,0.1,0.8,0.2,0.9c0.2,0.3,0.4,0.2,0.6-0.1c0.2-0.3,0.2-0.1,0,0.3c-0.2,0.4-0.7,0.5-1.3,0.3
		c-0.1,0-0.1,0-0.1,0.2c0,0.1-0.1,0.3-0.2,0.4L46.3,41l0.2,0C46.9,41.1,47.5,41,47.8,40.9z M39.7,40.2c1.2-0.3,1.4-0.7,1-1.9
		c-0.1-0.3-0.2-0.5-0.2-0.6c0-0.3-0.1-0.2-0.2,0.2c-0.1,0.5-0.6,0.9-0.9,0.9c-0.3,0-0.4-0.1-0.5-0.3c-0.2-0.4,0-1.1,0.7-1.7
		c0.5-0.5,0.7-0.5,0.7-0.1c0,0.6-0.4,1.5-0.7,1.4c-0.1-0.1-0.1-0.4,0-0.6c0.1-0.2,0.1-0.5,0-0.5c-0.1,0-0.4,0.5-0.5,0.9
		c0,0.3,0,0.4,0.1,0.4c0.5,0.3,1.1-0.5,1.2-1.5c0-0.5-0.1-0.6-0.4-0.5c-0.4,0.1-1.6,1.6-1.6,2.1c0,0.4,0.2,0.6,0.5,0.7
		c0.5,0.1,1-0.1,1.4-0.7l0.2-0.2l0,0.3c0,0.5-0.3,0.7-1.3,1.1c-0.2,0.1-0.5,0.2-0.5,0.2c0,0,0.4,0.7,0.5,0.7
		C39.2,40.3,39.5,40.2,39.7,40.2L39.7,40.2z M46.8,39.6c0.1-0.1,0.1-0.3,0.1-0.8c0-0.5-0.1-0.6-0.3-0.9c-0.4-0.4-0.9-0.3-0.6,0.1
		c0.1,0.2,0.3,0.2,0.3-0.1c-0.1-0.2,0-0.2,0.2,0c0.3,0.3,0.2,0.8-0.1,0.8c-0.2,0-0.3-0.1-0.5-0.7c-0.1-0.3-0.2-0.5-0.2-0.5
		c-0.1,0-0.2,0.1-0.1,0.2c0,0,0.2,0.4,0.2,0.8C46.1,39.6,46.4,39.9,46.8,39.6L46.8,39.6z M42.1,39.6c0.1,0,0.1-0.2,0.1-0.4
		c0-0.3-0.1-0.3-0.2-0.2c-0.2,0.1-0.4-0.1-0.5-0.5c-0.1-0.3-0.1-0.3,0.4-0.1c0.1,0,0.2-0.1,0.3-0.2c0.2-0.2,0.3-0.5,0.1-0.5
		c0,0-0.1,0-0.1,0.1c0,0.1-0.2,0.1-0.3,0c0-0.1-0.1,0-0.2,0.1c-0.1,0.1-0.2,0.2-0.2,0.2c0,0-0.1-0.1-0.1-0.2c0-0.2-0.1-0.2-0.2,0
		c-0.1,0.1-0.1,0.2,0,0.3c0.1,0.1,0.3,0.8,0.3,1C41.4,39.5,41.9,39.8,42.1,39.6L42.1,39.6z M43.6,39.2c0.3-0.3,0.4-0.8,0.2-1.2
		c-0.1-0.3-0.4-0.4-0.7-0.3c-0.2,0.1-0.6,0.8-0.6,1.1C42.6,39.4,43.2,39.6,43.6,39.2L43.6,39.2z M43.1,38.7
		c-0.1-0.1-0.2-0.3-0.2-0.4c0-0.2,0-0.2,0.1-0.1c0.1,0.2,0.3,0.2,0.4,0.1c0,0,0-0.1,0-0.2c-0.1-0.1-0.1-0.3,0-0.3
		c0.2,0,0.4,0.3,0.4,0.5c0,0.2-0.3,0.5-0.5,0.5C43.3,38.8,43.2,38.8,43.1,38.7L43.1,38.7z M45.2,39.1c0.3-0.4,0.3-0.9-0.1-1.3
		c-0.2-0.2-0.6-0.2-0.8-0.1c-0.2,0.2-0.3,0.8-0.3,1.1C44.2,39.3,44.9,39.5,45.2,39.1z M44.6,38.5c-0.1-0.1-0.2-0.2-0.2-0.4
		c0-0.2,0-0.3,0.1-0.1c0.1,0.2,0.3,0.3,0.4,0.2c0.1-0.1,0.1-0.1,0-0.2c-0.2-0.1-0.2-0.3-0.1-0.3c0.1,0,0.6,0.5,0.6,0.6
		c0,0.1-0.3,0.4-0.5,0.4C44.8,38.7,44.7,38.6,44.6,38.5z M49.3,38.2l0.9-0.3l-0.9,0c-0.8,0-0.9,0-0.9,0.1c0,0.1,0.1,0.5,0.1,0.5
		C48.5,38.5,48.9,38.4,49.3,38.2L49.3,38.2z M38.2,38.1l0.1-0.3l-0.8,0c-0.4,0-0.8,0-0.8,0c0,0,1.3,0.6,1.4,0.5
		C38.1,38.4,38.1,38.3,38.2,38.1z M43.4,37.3c0.2,0,0.4,0.1,0.5,0.2c0.1,0.1,0.2,0.1,0.3,0c0.1-0.1,0.2-0.2,0.3-0.2
		c0.1,0,0.1,0,0.1,0c0-0.1-1.2-2-1.2-2c-0.1,0-1.3,2-1.3,2.2c0,0.1,0,0.1,0.1,0.1c0.1,0,0.2,0,0.3,0.1c0.1,0.1,0.1,0.1,0.4-0.1
		C43.1,37.3,43.2,37.3,43.4,37.3L43.4,37.3z"/>
	<path id="path4567" inkscape:connector-curvature="0" class="st1" d="M42.6,37.6C42.6,37.6,42.5,37.6,42.6,37.6
		c-0.1-0.1-0.1-0.1-0.2-0.1c-0.1,0-0.1,0-0.2,0c0,0-0.1,0-0.1,0c0,0,0,0,0-0.1c0,0,0.1-0.2,0.3-0.6c0.4-0.7,0.9-1.5,1-1.6
		c0,0,0,0,0,0c0,0,0.2,0.3,0.5,0.8c0.4,0.6,0.7,1.1,0.7,1.2c0,0,0,0-0.1,0c-0.1,0-0.2,0.1-0.3,0.2c-0.1,0.1-0.1,0.1-0.1,0.1
		c0,0,0,0-0.1,0c0,0,0,0-0.1,0c0,0,0,0-0.1,0c-0.1,0-0.1-0.1-0.2-0.1c-0.1,0-0.3-0.1-0.4-0.1c-0.1,0-0.1,0-0.2,0
		c-0.1,0-0.1,0.1-0.2,0.2C42.7,37.6,42.6,37.6,42.6,37.6L42.6,37.6z"/>
	<path id="path4571" inkscape:connector-curvature="0" class="st1" d="M38,38.4c-0.3-0.1-1.1-0.4-1.3-0.5c0,0,0,0,0,0
		c0,0,0.3,0,0.6,0c0.1,0,0.9,0,0.9,0C38.3,37.9,38.1,38.3,38,38.4C38.1,38.4,38.1,38.4,38,38.4z"/>
	<path id="path4573" inkscape:connector-curvature="0" class="st1" d="M48.5,38.5c0-0.1-0.1-0.4-0.1-0.5c0,0,0-0.1,0-0.1
		c0,0,0.1-0.1,0.4-0.1c0.1,0,0.7,0,1.1,0l0.3,0l-0.7,0.3C48.9,38.4,48.5,38.5,48.5,38.5C48.5,38.5,48.5,38.5,48.5,38.5L48.5,38.5
		L48.5,38.5z"/>
	<path id="path4575" inkscape:connector-curvature="0" class="st1" d="M39.3,42c0,0,0.1-0.2,0.3-0.5c0.5-0.8,0.7-1.1,1-1.3
		c0.3-0.2,0.4-0.3,0.5-0.5l0.1-0.1l0.1,0.1c0.2,0.2,0.3,0.3,0.6,0.3c0.3,0,0.6-0.2,0.6-0.3c0,0,0-0.1,0-0.1c0,0,0.1,0,0.1,0
		c0.2,0.1,0.2,0.1,0.4,0.1c0.1,0,0.2,0,0.3,0c0.1,0,0.2-0.1,0.4-0.2c0.1-0.1,0.2-0.1,0.2-0.1s0.1,0,0.2,0.1c0.1,0.1,0.2,0.1,0.2,0.1
		c0.3,0.1,0.6,0.1,0.9,0c0,0,0.2-0.1,0.3-0.2c0.1-0.1,0.2-0.1,0.2-0.1c0,0,0,0.1,0.1,0.2c0,0.1,0.1,0.2,0.1,0.2
		c0.1,0.1,0.2,0.2,0.4,0.3c0.2,0.1,0.2,0.2,0.3,0.3c0,0.1,0,0.2-0.2,0.4c-0.1,0.1-0.1,0.2-0.1,0.3c0,0.1,0,0.2,0.1,0.2
		c0.1,0.1,0.3,0.2,0.6,0.1c0.1,0,0.1,0,0.2,0c0.1,0,0.2,0.1,0.3,0.2c0.1,0.1,0.3,0.4,0.3,0.5c0,0,0,0,0,0c0,0-0.1,0-0.2-0.1
		c-0.1,0-1.4-0.6-1.9-0.7c-1.2-0.5-1.6-0.6-1.8-0.7c-0.2-0.1-0.3-0.1-0.5,0c-0.1,0-2.1,0.8-3.2,1.2C39.5,42,39.4,42,39.3,42
		C39.3,42,39.3,42,39.3,42L39.3,42z"/>
</g>
</svg>
